<svg xmlns="http://www.w3.org/2000/svg" width="25" height="25" xmlns:v="https://vecta.io/nano"><path d="M12.5 25A12.5 12.5 0 1 1 25 12.5 12.514 12.514 0 0 1 12.5 25zM9.195 9.846a.189.189 0 0 0-.188.188v2.218a.189.189 0 0 0 .188.189h1.345v7.36a.189.189 0 0 0 .189.188h2.7a.189.189 0 0 0 .189-.188v-7.358h1.95a.19.19 0 0 0 .188-.173l.188-2.22a.189.189 0 0 0-.188-.2h-2.138V8.272a.669.669 0 0 1 .667-.668h1.5a.189.189 0 0 0 .188-.188V5.2a.189.189 0 0 0-.188-.188H13.24a2.7 2.7 0 0 0-2.7 2.7v2.134z" fill="#e07c00"/></svg>