<svg xmlns="http://www.w3.org/2000/svg" width="25" height="25" xmlns:v="https://vecta.io/nano"><path d="M12.497 25c-6.904 0-12.5-5.596-12.5-12.5S5.593 0 12.497 0s12.5 5.596 12.5 12.5c-.008 6.9-5.6 12.492-12.5 12.5zM16.71 7.428c-.374 0-.71.225-.855.57s-.064.744.2 1.008.662.344 1.008.2.57-.48.57-.855c0-.51-.412-.923-.92-.925zM12.6 8.614c-1.572 0-2.99.946-3.59 2.398s-.27 3.124.842 4.235 2.783 1.444 4.235.843 2.4-2.018 2.4-3.6a3.89 3.89 0 0 0-3.881-3.886zm0 6.375A2.49 2.49 0 0 1 10.11 12.5a2.49 2.49 0 0 1 2.489-2.489 2.49 2.49 0 0 1 2.489 2.489c-.002 1.372-1.113 2.485-2.485 2.49zm7.84-5.718A4.74 4.74 0 0 0 15.7 4.532H9.445a4.74 4.74 0 0 0-4.739 4.739v6.255a4.74 4.74 0 0 0 4.739 4.739H15.7a4.74 4.74 0 0 0 4.739-4.739zm-1.484 6.255c0 1.798-1.457 3.255-3.255 3.255H9.445c-1.798 0-3.255-1.457-3.255-3.255V9.27c0-1.798 1.457-3.255 3.255-3.255H15.7c1.798 0 3.255 1.457 3.255 3.255z" fill="#e07c00"/></svg>