<svg xmlns="http://www.w3.org/2000/svg" width="25" height="25" xmlns:v="https://vecta.io/nano"><path d="M12.5 25a12.5 12.5 0 1 1 4.865-.983A12.422 12.422 0 0 1 12.5 25zm2.527-13.282a1.327 1.327 0 0 1 1.14.522 2.517 2.517 0 0 1 .373 1.492v4.713h2.766V12.76a3.7 3.7 0 0 0-.919-2.685 3.188 3.188 0 0 0-2.347-.882 3.155 3.155 0 0 0-2.706 1.483v-1.21h-2.667v8.978h2.666v-4.713a2.282 2.282 0 0 1 .43-1.48 1.549 1.549 0 0 1 1.264-.534zm-8.915-2.25v8.978h2.78V9.467zm1.376-4.49a1.657 1.657 0 1 0 1.643 1.656 1.652 1.652 0 0 0-1.643-1.656z" fill="#e07c00"/></svg>