<svg xmlns="http://www.w3.org/2000/svg" width="25" height="25" xmlns:v="https://vecta.io/nano"><path d="M12.5 25a12.5 12.5 0 1 1 4.866-.983A12.421 12.421 0 0 1 12.5 25zm-6.906-7.072a.109.109 0 0 1 .062.038 8.757 8.757 0 0 0 2.225.989 8.658 8.658 0 0 0 2.357.321 10.081 10.081 0 0 0 1.536-.121 8.279 8.279 0 0 0 5.138-2.88 9.318 9.318 0 0 0 1.614-2.811 9.077 9.077 0 0 0 .507-3.2.258.258 0 0 1 .115-.247 6.176 6.176 0 0 0 1.276-1.3.5.5 0 0 1 .031-.047.165.165 0 0 0 .046-.127 6.4 6.4 0 0 1-1.659.43 3.022 3.022 0 0 0 1.3-1.7.285.285 0 0 1-.129.082 5.672 5.672 0 0 1-1.627.638.419.419 0 0 1-.1.014.347.347 0 0 1-.234-.1 3.056 3.056 0 0 0-2.121-.848 2.973 2.973 0 0 0-1.5.4 3.076 3.076 0 0 0-1.531 3.218c.013.07.01.112-.012.138a.107.107 0 0 1-.087.03.357.357 0 0 1-.048 0 3.11 3.11 0 0 0-.363-.051l-.32-.043a8.92 8.92 0 0 1-2.953-1.009A9.058 9.058 0 0 1 6.7 7.754c-.05-.056-.082-.087-.1-.087s-.06.042-.1.12a3.146 3.146 0 0 0 .485 3.482l.39.357.122.107a2.828 2.828 0 0 1-1.206-.326.271.271 0 0 0-.1-.032.045.045 0 0 0-.035.014c-.016.017-.02.052-.015.112a3.338 3.338 0 0 0 .48 1.541A3.19 3.19 0 0 0 7.8 14.127a1.881 1.881 0 0 0 .5.207l.226.073a1.74 1.74 0 0 1-.641.1 4.848 4.848 0 0 1-.489-.028h0-.09c-.023 0-.05 0-.058.016s0 .06.035.142a3.032 3.032 0 0 0 1.466 1.634 3.1 3.1 0 0 0 1.33.332 5.77 5.77 0 0 1-1.285.773 6.583 6.583 0 0 1-2.716.566c-.16.001-.323-.004-.485-.014z" fill="#e07c00"/></svg>