<svg xmlns="http://www.w3.org/2000/svg" x="25" y="25" width="25" height="25" viewBox="0 0 512 512" fill="#e07c00" xmlns:v="https://vecta.io/nano"><path d="M224.1 304l83.3-48-83.3-48zM256 0C114.6 0 0 114.6 0 256s114.6 256 256 256 256-114.6 256-256S397.4 0 256 0zm160 256.3s0 51.9-6.6 77c-3.7 13.7-14.5 24.5-28.2 28.2C356.1 368 256 368 256 368s-99.9 0-125.2-6.9c-13.7-3.7-24.5-14.5-28.2-28.2C96 308.2 96 256 96 256s0-51.9 6.6-76.9c3.7-13.7 14.8-24.8 28.2-28.5C155.9 144 256 144 256 144s100.1 0 125.2 6.9c13.7 3.7 24.5 14.5 28.2 28.2 6.8 25 6.6 77.2 6.6 77.2z"/></svg>